<svg width="200" height="200" viewBox="0 0 200 200" xmlns="http://www.w3.org/2000/svg">
  <!-- QR Code Pattern -->
  <rect width="200" height="200" fill="white"/>
  
  <!-- Corner squares -->
  <rect x="10" y="10" width="50" height="50" fill="#1e40af" rx="5"/>
  <rect x="20" y="20" width="30" height="30" fill="white" rx="3"/>
  <rect x="25" y="25" width="20" height="20" fill="#1e40af" rx="2"/>
  
  <rect x="140" y="10" width="50" height="50" fill="#1e40af" rx="5"/>
  <rect x="150" y="20" width="30" height="30" fill="white" rx="3"/>
  <rect x="155" y="25" width="20" height="20" fill="#1e40af" rx="2"/>
  
  <rect x="10" y="140" width="50" height="50" fill="#1e40af" rx="5"/>
  <rect x="20" y="150" width="30" height="30" fill="white" rx="3"/>
  <rect x="25" y="155" width="20" height="20" fill="#1e40af" rx="2"/>
  
  <!-- Data pattern -->
  <rect x="70" y="10" width="8" height="8" fill="#1e40af"/>
  <rect x="82" y="10" width="8" height="8" fill="#1e40af"/>
  <rect x="94" y="10" width="8" height="8" fill="#1e40af"/>
  <rect x="106" y="10" width="8" height="8" fill="#1e40af"/>
  <rect x="118" y="10" width="8" height="8" fill="#1e40af"/>
  
  <rect x="10" y="70" width="8" height="8" fill="#1e40af"/>
  <rect x="22" y="70" width="8" height="8" fill="#1e40af"/>
  <rect x="34" y="70" width="8" height="8" fill="#1e40af"/>
  <rect x="46" y="70" width="8" height="8" fill="#1e40af"/>
  
  <rect x="70" y="22" width="8" height="8" fill="#1e40af"/>
  <rect x="82" y="22" width="8" height="8" fill="#1e40af"/>
  <rect x="94" y="22" width="8" height="8" fill="#1e40af"/>
  <rect x="106" y="22" width="8" height="8" fill="#1e40af"/>
  <rect x="118" y="22" width="8" height="8" fill="#1e40af"/>
  
  <rect x="70" y="34" width="8" height="8" fill="#1e40af"/>
  <rect x="82" y="34" width="8" height="8" fill="#1e40af"/>
  <rect x="94" y="34" width="8" height="8" fill="#1e40af"/>
  <rect x="106" y="34" width="8" height="8" fill="#1e40af"/>
  <rect x="118" y="34" width="8" height="8" fill="#1e40af"/>
  
  <rect x="70" y="46" width="8" height="8" fill="#1e40af"/>
  <rect x="82" y="46" width="8" height="8" fill="#1e40af"/>
  <rect x="94" y="46" width="8" height="8" fill="#1e40af"/>
  <rect x="106" y="46" width="8" height="8" fill="#1e40af"/>
  <rect x="118" y="46" width="8" height="8" fill="#1e40af"/>
  
  <rect x="70" y="58" width="8" height="8" fill="#1e40af"/>
  <rect x="82" y="58" width="8" height="8" fill="#1e40af"/>
  <rect x="94" y="58" width="8" height="8" fill="#1e40af"/>
  <rect x="106" y="58" width="8" height="8" fill="#1e40af"/>
  <rect x="118" y="58" width="8" height="8" fill="#1e40af"/>
  
  <!-- More data pattern -->
  <rect x="70" y="70" width="8" height="8" fill="#1e40af"/>
  <rect x="82" y="70" width="8" height="8" fill="#1e40af"/>
  <rect x="94" y="70" width="8" height="8" fill="#1e40af"/>
  <rect x="106" y="70" width="8" height="8" fill="#1e40af"/>
  <rect x="118" y="70" width="8" height="8" fill="#1e40af"/>
  <rect x="130" y="70" width="8" height="8" fill="#1e40af"/>
  <rect x="142" y="70" width="8" height="8" fill="#1e40af"/>
  <rect x="154" y="70" width="8" height="8" fill="#1e40af"/>
  <rect x="166" y="70" width="8" height="8" fill="#1e40af"/>
  <rect x="178" y="70" width="8" height="8" fill="#1e40af"/>
  
  <rect x="70" y="82" width="8" height="8" fill="#1e40af"/>
  <rect x="82" y="82" width="8" height="8" fill="#1e40af"/>
  <rect x="94" y="82" width="8" height="8" fill="#1e40af"/>
  <rect x="106" y="82" width="8" height="8" fill="#1e40af"/>
  <rect x="118" y="82" width="8" height="8" fill="#1e40af"/>
  <rect x="130" y="82" width="8" height="8" fill="#1e40af"/>
  <rect x="142" y="82" width="8" height="8" fill="#1e40af"/>
  <rect x="154" y="82" width="8" height="8" fill="#1e40af"/>
  <rect x="166" y="82" width="8" height="8" fill="#1e40af"/>
  <rect x="178" y="82" width="8" height="8" fill="#1e40af"/>
  
  <rect x="70" y="94" width="8" height="8" fill="#1e40af"/>
  <rect x="82" y="94" width="8" height="8" fill="#1e40af"/>
  <rect x="94" y="94" width="8" height="8" fill="#1e40af"/>
  <rect x="106" y="94" width="8" height="8" fill="#1e40af"/>
  <rect x="118" y="94" width="8" height="8" fill="#1e40af"/>
  <rect x="130" y="94" width="8" height="8" fill="#1e40af"/>
  <rect x="142" y="94" width="8" height="8" fill="#1e40af"/>
  <rect x="154" y="94" width="8" height="8" fill="#1e40af"/>
  <rect x="166" y="94" width="8" height="8" fill="#1e40af"/>
  <rect x="178" y="94" width="8" height="8" fill="#1e40af"/>
  
  <rect x="70" y="106" width="8" height="8" fill="#1e40af"/>
  <rect x="82" y="106" width="8" height="8" fill="#1e40af"/>
  <rect x="94" y="106" width="8" height="8" fill="#1e40af"/>
  <rect x="106" y="106" width="8" height="8" fill="#1e40af"/>
  <rect x="118" y="106" width="8" height="8" fill="#1e40af"/>
  <rect x="130" y="106" width="8" height="8" fill="#1e40af"/>
  <rect x="142" y="106" width="8" height="8" fill="#1e40af"/>
  <rect x="154" y="106" width="8" height="8" fill="#1e40af"/>
  <rect x="166" y="106" width="8" height="8" fill="#1e40af"/>
  <rect x="178" y="106" width="8" height="8" fill="#1e40af"/>
  
  <rect x="70" y="118" width="8" height="8" fill="#1e40af"/>
  <rect x="82" y="118" width="8" height="8" fill="#1e40af"/>
  <rect x="94" y="118" width="8" height="8" fill="#1e40af"/>
  <rect x="106" y="118" width="8" height="8" fill="#1e40af"/>
  <rect x="118" y="118" width="8" height="8" fill="#1e40af"/>
  <rect x="130" y="118" width="8" height="8" fill="#1e40af"/>
  <rect x="142" y="118" width="8" height="8" fill="#1e40af"/>
  <rect x="154" y="118" width="8" height="8" fill="#1e40af"/>
  <rect x="166" y="118" width="8" height="8" fill="#1e40af"/>
  <rect x="178" y="118" width="8" height="8" fill="#1e40af"/>
  
  <rect x="70" y="130" width="8" height="8" fill="#1e40af"/>
  <rect x="82" y="130" width="8" height="8" fill="#1e40af"/>
  <rect x="94" y="130" width="8" height="8" fill="#1e40af"/>
  <rect x="106" y="130" width="8" height="8" fill="#1e40af"/>
  <rect x="118" y="130" width="8" height="8" fill="#1e40af"/>
  <rect x="130" y="130" width="8" height="8" fill="#1e40af"/>
  <rect x="142" y="130" width="8" height="8" fill="#1e40af"/>
  <rect x="154" y="130" width="8" height="8" fill="#1e40af"/>
  <rect x="166" y="130" width="8" height="8" fill="#1e40af"/>
  <rect x="178" y="130" width="8" height="8" fill="#1e40af"/>
  
  <rect x="70" y="142" width="8" height="8" fill="#1e40af"/>
  <rect x="82" y="142" width="8" height="8" fill="#1e40af"/>
  <rect x="94" y="142" width="8" height="8" fill="#1e40af"/>
  <rect x="106" y="142" width="8" height="8" fill="#1e40af"/>
  <rect x="118" y="142" width="8" height="8" fill="#1e40af"/>
  <rect x="130" y="142" width="8" height="8" fill="#1e40af"/>
  <rect x="142" y="142" width="8" height="8" fill="#1e40af"/>
  <rect x="154" y="142" width="8" height="8" fill="#1e40af"/>
  <rect x="166" y="142" width="8" height="8" fill="#1e40af"/>
  <rect x="178" y="142" width="8" height="8" fill="#1e40af"/>
  
  <rect x="70" y="154" width="8" height="8" fill="#1e40af"/>
  <rect x="82" y="154" width="8" height="8" fill="#1e40af"/>
  <rect x="94" y="154" width="8" height="8" fill="#1e40af"/>
  <rect x="106" y="154" width="8" height="8" fill="#1e40af"/>
  <rect x="118" y="154" width="8" height="8" fill="#1e40af"/>
  <rect x="130" y="154" width="8" height="8" fill="#1e40af"/>
  <rect x="142" y="154" width="8" height="8" fill="#1e40af"/>
  <rect x="154" y="154" width="8" height="8" fill="#1e40af"/>
  <rect x="166" y="154" width="8" height="8" fill="#1e40af"/>
  <rect x="178" y="154" width="8" height="8" fill="#1e40af"/>
  
  <rect x="70" y="166" width="8" height="8" fill="#1e40af"/>
  <rect x="82" y="166" width="8" height="8" fill="#1e40af"/>
  <rect x="94" y="166" width="8" height="8" fill="#1e40af"/>
  <rect x="106" y="166" width="8" height="8" fill="#1e40af"/>
  <rect x="118" y="166" width="8" height="8" fill="#1e40af"/>
  <rect x="130" y="166" width="8" height="8" fill="#1e40af"/>
  <rect x="142" y="166" width="8" height="8" fill="#1e40af"/>
  <rect x="154" y="166" width="8" height="8" fill="#1e40af"/>
  <rect x="166" y="166" width="8" height="8" fill="#1e40af"/>
  <rect x="178" y="166" width="8" height="8" fill="#1e40af"/>
  
  <rect x="70" y="178" width="8" height="8" fill="#1e40af"/>
  <rect x="82" y="178" width="8" height="8" fill="#1e40af"/>
  <rect x="94" y="178" width="8" height="8" fill="#1e40af"/>
  <rect x="106" y="178" width="8" height="8" fill="#1e40af"/>
  <rect x="118" y="178" width="8" height="8" fill="#1e40af"/>
  <rect x="130" y="178" width="8" height="8" fill="#1e40af"/>
  <rect x="142" y="178" width="8" height="8" fill="#1e40af"/>
  <rect x="154" y="178" width="8" height="8" fill="#1e40af"/>
  <rect x="166" y="178" width="8" height="8" fill="#1e40af"/>
  <rect x="178" y="178" width="8" height="8" fill="#1e40af"/>
  
  <!-- Center logo area -->
  <rect x="85" y="85" width="30" height="30" fill="#1e40af" rx="5"/>
  <rect x="90" y="90" width="20" height="20" fill="white" rx="3"/>
  <rect x="95" y="95" width="10" height="10" fill="#1e40af" rx="1"/>
</svg>